<?xml version="1.0" encoding="UTF-8" standalone="no"?>
<svg
   inkscape:version="1.1.2 (0a00cf5339, 2022-02-04)"
   sodipodi:docname="escebchapado.cdr.svg"
   viewBox="0 0 595.27557 841.88977"
   id="svg141"
   height="841.88977"
   width="595.27557"
   version="1.1"
   xmlns:inkscape="http://www.inkscape.org/namespaces/inkscape"
   xmlns:sodipodi="http://sodipodi.sourceforge.net/DTD/sodipodi-0.dtd"
   xmlns="http://www.w3.org/2000/svg"
   xmlns:svg="http://www.w3.org/2000/svg">
  <defs
     id="defs145">
    <rect
       x="280.5103"
       y="548.8477"
       width="40.01389"
       height="45.50205"
       id="rect117831" />
    <rect
       x="282.9754"
       y="546.5247"
       width="38.85439"
       height="45.80489"
       id="rect110125" />
    <filter
       x="-0.1686911"
       width="1.3372071"
       y="-0.092655618"
       height="1.1852122"
       inkscape:menu-tooltip="Smooth rainbow colors slightly melted along the edges"
       inkscape:menu="Textures"
       inkscape:label="Melted Rainbow"
       style="color-interpolation-filters:sRGB;"
       id="filter102821">
      <feGaussianBlur
         result="result8"
         stdDeviation="5"
         id="feGaussianBlur102809" />
      <feTurbulence
         baseFrequency="0.015"
         numOctaves="2"
         type="fractalNoise"
         result="result7"
         seed="20"
         id="feTurbulence102811" />
      <feComposite
         in="SourceGraphic"
         operator="in"
         result="result6"
         in2="result8"
         id="feComposite102813" />
      <feComposite
         in="result6"
         operator="arithmetic"
         result="result2"
         in2="result7"
         k3="1"
         id="feComposite102815" />
      <feComposite
         in2="result6"
         operator="in"
         in="result2"
         result="fbSourceGraphic"
         id="feComposite102817" />
      <feComposite
         in2="fbSourceGraphic"
         in="fbSourceGraphic"
         k2="2.5"
         operator="arithmetic"
         id="feComposite102819" />
    </filter>
  </defs>
  <sodipodi:namedview
     id="namedview143"
     pagecolor="#ffffff"
     bordercolor="#666666"
     borderopacity="1.0"
     inkscape:pageshadow="2"
     inkscape:pageopacity="0.0"
     inkscape:pagecheckerboard="0"
     showgrid="false"
     inkscape:zoom="0.94069274"
     inkscape:cx="162.64609"
     inkscape:cy="410.3359"
     inkscape:window-width="1360"
     inkscape:window-height="741"
     inkscape:window-x="-3"
     inkscape:window-y="0"
     inkscape:window-maximized="0"
     inkscape:current-layer="Layer1001"
     inkscape:snap-text-baseline="false" />
  <g
     id="Layer1000">
    <g
       id="Layer1001">
      <path
         d="m 289.5061,548.5485 c 7.7105,-1.1753 15.4212,-2.3506 23.1318,-3.5258 1.5596,-0.2378 2.8356,0.6932 2.8356,2.0689 0,0.5557 0,1.1116 0,1.6675 0,1.3756 -1.276,2.6955 -2.8356,2.9333 -7.7106,1.1752 -15.4213,2.3505 -23.1318,3.5258 -1.5596,0.2377 -2.8356,-0.6932 -2.8356,-2.0688 2e-4,-0.556 2e-4,-1.1118 0,-1.6676 0,-1.3756 1.276,-2.6956 2.8356,-2.9333 z"
         style="fill:#eceded;fill-rule:evenodd;stroke:#868789;stroke-width:1.3048;stroke-linecap:butt;stroke-linejoin:miter;stroke-dasharray:none"
         id="path2" />
      <g
         id="Layer1002" />
      <path
         d="m 289.5061,586.961 c 7.7105,-1.1754 15.4212,-2.3507 23.1318,-3.5259 1.5596,-0.2378 2.8356,0.6933 2.8356,2.0689 0,0.5557 0,1.1116 0,1.6675 0,1.3756 -1.276,2.6955 -2.8356,2.9333 -7.7106,1.1752 -15.4213,2.3505 -23.1318,3.5259 -1.5596,0.2376 -2.8356,-0.6933 -2.8356,-2.0689 2e-4,-0.556 2e-4,-1.1118 0,-1.6675 0,-1.3757 1.276,-2.6957 2.8356,-2.9333 z"
         style="fill:#eceded;fill-rule:evenodd;stroke:#868789;stroke-width:1.3048;stroke-linecap:butt;stroke-linejoin:miter;stroke-dasharray:none"
         id="path5" />
      <path
         d="m 284.2775,258.4793 16.2393,-23.0958 17.9477,23.0958 -0.2522,273.0231 h -33.8492 z"
         style="fill:#eceded;fill-rule:evenodd;stroke:#6e7071;stroke-width:0.2377;stroke-linecap:butt;stroke-linejoin:miter;stroke-dasharray:none"
         id="path7" />
      <path
         d="m 300.5168,235.3833 17.9477,23.0961 -0.2522,45.0607 -17.4376,0.9619 z"
         style="fill:#868789;fill-rule:evenodd;stroke:#6e7071;stroke-width:0.2502;stroke-linecap:butt;stroke-linejoin:miter;stroke-dasharray:none"
         id="path9" />
      <path
         d="m 369.4545,353.9331 28.1047,-7.1877 23.0809,12.7159 -14.9552,18.7686 -29.0331,3.0307 z"
         style="fill:#eceded;fill-rule:evenodd;stroke:#6e7071;stroke-width:0.0582;stroke-linecap:butt;stroke-linejoin:miter;stroke-dasharray:none"
         id="path11" />
      <path
         d="m 373.7434,368.8596 2.8824,12.6369 28.6716,-2.3529 15.1119,-19.5949 z"
         style="fill:#868789;fill-rule:evenodd;stroke:#6e7071;stroke-width:0.0578;stroke-linecap:butt;stroke-linejoin:miter;stroke-dasharray:none"
         id="path13" />
      <path
         d="m 376.5683,381.4421 29.1482,-3.6204 19.8156,15.4026 -18.3773,17.2384 -29.4577,0.1435 z"
         style="fill:#eceded;fill-rule:evenodd;stroke:#6e7071;stroke-width:0.0152;stroke-linecap:butt;stroke-linejoin:miter;stroke-dasharray:none"
         id="path15" />
      <path
         d="m 377.305,393.7483 0.311,16.87 29.4867,-0.0973 18.1855,-17.2432 z"
         style="fill:#868789;fill-rule:evenodd;stroke:#6e7071;stroke-width:0.0151;stroke-linecap:butt;stroke-linejoin:miter;stroke-dasharray:none"
         id="path17" />
      <path
         d="m 314.9691,299.6752 11.886,-26.5698 26.0133,-6.3588 5.0591,24.2056 -19.6756,19.1934 z"
         style="fill:#eceded;fill-rule:evenodd;stroke:#6e7071;stroke-width:0.2192;stroke-linecap:butt;stroke-linejoin:miter;stroke-dasharray:none"
         id="path19" />
      <path
         d="m 327.3236,303.9633 10.5628,7.177 20.0673,-20.4236 -4.8234,-24.0688 z"
         style="fill:#868789;fill-rule:evenodd;stroke:#6e7071;stroke-width:0.2177;stroke-linecap:butt;stroke-linejoin:miter;stroke-dasharray:none"
         id="path21" />
      <path
         d="m 337.4218,310.7729 19.6264,-19.6658 26.9455,1.5785 -3.3016,24.0648 -23.2876,12.338 z"
         style="fill:#eceded;fill-rule:evenodd;stroke:#6e7071;stroke-width:0.1667;stroke-linecap:butt;stroke-linejoin:miter;stroke-dasharray:none"
         id="path23" />
      <path
         d="m 347.5585,319.7341 8.0741,10.6227 25.5099,-13.7205 2.4662,-23.9921 z"
         style="fill:#868789;fill-rule:evenodd;stroke:#6e7071;stroke-width:0.1662;stroke-linecap:butt;stroke-linejoin:miter;stroke-dasharray:none"
         id="path25" />
      <path
         d="m 355.6839,329.6897 24.6814,-13.0956 26.9468,9.0965 -10.2706,20.7931 -26.97,8.5463 z"
         style="fill:#eceded;fill-rule:evenodd;stroke:#6e7071;stroke-width:0.1026;stroke-linecap:butt;stroke-linejoin:miter;stroke-dasharray:none"
         id="path27" />
      <path
         d="m 363.0952,342.203 7.0615,12.7411 26.8583,-8.1536 10.0877,-20.9778 z"
         style="fill:#868789;fill-rule:evenodd;stroke:#6e7071;stroke-width:0.1026;stroke-linecap:butt;stroke-linejoin:miter;stroke-dasharray:none"
         id="path29" />
      <path
         d="m 369.4545,466.925 27.1383,7.6696 24.3336,-10.7821 -15.2414,-22.033 -29.938,-2.182 z"
         style="fill:#eceded;fill-rule:evenodd;stroke:#6e7071;stroke-width:0.0582;stroke-linecap:butt;stroke-linejoin:miter;stroke-dasharray:none"
         id="path31" />
      <path
         d="m 372.8387,454.3236 -3.5775,11.9712 27.2489,8.1806 24.4717,-10.7338 z"
         style="fill:#868789;fill-rule:evenodd;stroke:#6e7071;stroke-width:0.0578;stroke-linecap:butt;stroke-linejoin:miter;stroke-dasharray:none"
         id="path33" />
      <path
         d="m 376.5683,439.4159 30.1148,3.6206 18.849,-15.4028 -18.3773,-17.2383 -29.4575,0.2222 z"
         style="fill:#eceded;fill-rule:evenodd;stroke:#6e7071;stroke-width:0.0152;stroke-linecap:butt;stroke-linejoin:miter;stroke-dasharray:none"
         id="path35" />
      <path
         d="m 377.531,424.3443 -1.3831,15.0195 30.9547,4.4025 18.1856,-16.1694 z"
         style="fill:#868789;fill-rule:evenodd;stroke:#6e7071;stroke-width:0.0151;stroke-linecap:butt;stroke-linejoin:miter;stroke-dasharray:none"
         id="path37" />
      <path
         d="m 316.3677,524.2927 10.4874,23.4599 25.4158,9.9726 5.6566,-27.8194 -19.6756,-19.1934 z"
         style="fill:#eceded;fill-rule:evenodd;stroke:#6e7071;stroke-width:0.216;stroke-linecap:butt;stroke-linejoin:miter;stroke-dasharray:none"
         id="path39" />
      <path
         d="m 327.9855,517.107 -11.6017,7.2054 10.8475,23.2766 25.0214,10.1364 z"
         style="fill:#868789;fill-rule:evenodd"
         id="path41" />
      <path
         d="m 338.2805,510.8905 18.7677,18.8605 26.9455,-1.5785 -3.3016,-24.0649 -23.0014,-14.7538 z"
         style="fill:#eceded;fill-rule:evenodd;stroke:#6e7071;stroke-width:0.1667;stroke-linecap:butt;stroke-linejoin:miter;stroke-dasharray:none"
         id="path43" />
      <path
         d="m 348.131,499.3287 -9.9597,11.428 19.3324,19.4086 26.3311,-2.1502 z"
         style="fill:#868789;fill-rule:evenodd;stroke:#6e7071;stroke-width:0.1662;stroke-linecap:butt;stroke-linejoin:miter;stroke-dasharray:none"
         id="path45" />
      <path
         d="m 357.4014,489.5578 22.9639,14.7061 25.8019,-6.4122 -9.0055,-23.2522 -27.8752,-8.1914 z"
         style="fill:#eceded;fill-rule:evenodd;stroke:#6e7071;stroke-width:0.1026;stroke-linecap:butt;stroke-linejoin:miter;stroke-dasharray:none"
         id="path47" />
      <path
         d="m 363.3349,477.5739 -6.2257,11.568 23.7094,15.3551 25.1391,-6.7514 z"
         style="fill:#868789;fill-rule:evenodd;stroke:#6e7071;stroke-width:0.1026;stroke-linecap:butt;stroke-linejoin:miter;stroke-dasharray:none"
         id="path49" />
      <path
         d="m 233.9502,466.5043 -27.1384,7.6697 -24.3336,-10.7822 15.2414,-22.033 29.938,-2.182 z"
         style="fill:#eceded;fill-rule:evenodd;stroke:#6e7071;stroke-width:0.0582;stroke-linecap:butt;stroke-linejoin:miter;stroke-dasharray:none"
         id="path51" />
      <path
         d="m 230.5659,453.9029 3.5775,11.9713 -27.2489,8.1806 -24.4717,-10.7339 z"
         style="fill:#868789;fill-rule:evenodd;stroke:#6e7071;stroke-width:0.0578;stroke-linecap:butt;stroke-linejoin:miter;stroke-dasharray:none"
         id="path53" />
      <path
         d="m 226.8364,438.9953 -30.1148,3.6205 -18.849,-15.4028 18.3773,-17.2383 29.4575,0.2223 z"
         style="fill:#eceded;fill-rule:evenodd;stroke:#6e7071;stroke-width:0.0152;stroke-linecap:butt;stroke-linejoin:miter;stroke-dasharray:none"
         id="path55" />
      <path
         d="m 225.8737,423.9237 1.3831,15.0194 -30.9547,4.4026 -18.1856,-16.1695 z"
         style="fill:#868789;fill-rule:evenodd;stroke:#6e7071;stroke-width:0.0151;stroke-linecap:butt;stroke-linejoin:miter;stroke-dasharray:none"
         id="path57" />
      <path
         d="m 287.0369,523.8721 -10.4874,23.4599 -25.1631,10.3933 -5.9092,-28.2402 19.6755,-19.1933 z"
         style="fill:#eceded;fill-rule:evenodd;stroke:#6e7071;stroke-width:0.2192;stroke-linecap:butt;stroke-linejoin:miter;stroke-dasharray:none"
         id="path59" />
      <path
         d="m 275.4191,516.6864 11.6018,7.2053 -10.8476,23.2766 -24.7688,10.5572 z"
         style="fill:#868789;fill-rule:evenodd"
         id="path61" />
      <path
         d="m 265.1241,510.4698 -18.7677,18.8605 -26.9455,-1.5785 3.3017,-24.0648 23.0014,-14.7539 z"
         style="fill:#eceded;fill-rule:evenodd;stroke:#6e7071;stroke-width:0.1667;stroke-linecap:butt;stroke-linejoin:miter;stroke-dasharray:none"
         id="path63" />
      <path
         d="m 255.2737,498.9081 9.9596,11.428 -19.3324,19.4086 -26.3311,-2.1503 z"
         style="fill:#868789;fill-rule:evenodd;stroke:#6e7071;stroke-width:0.1662;stroke-linecap:butt;stroke-linejoin:miter;stroke-dasharray:none"
         id="path65" />
      <path
         d="m 246.0032,489.1372 -22.9639,14.7061 -25.8018,-6.4123 9.0055,-23.2522 27.8752,-8.1914 z"
         style="fill:#eceded;fill-rule:evenodd;stroke:#6e7071;stroke-width:0.1026;stroke-linecap:butt;stroke-linejoin:miter;stroke-dasharray:none"
         id="path67" />
      <path
         d="m 240.0697,477.1533 6.2257,11.568 -23.7093,15.3551 -25.1392,-6.7515 z"
         style="fill:#868789;fill-rule:evenodd;stroke:#6e7071;stroke-width:0.1026;stroke-linecap:butt;stroke-linejoin:miter;stroke-dasharray:none"
         id="path69" />
      <path
         d="m 233.6594,353.9331 -27.4958,-7.3345 -23.6898,12.8627 14.9551,19.6172 28.4157,2.1819 z"
         style="fill:#eceded;fill-rule:evenodd;stroke:#6e7071;stroke-width:0.0582;stroke-linecap:butt;stroke-linejoin:miter;stroke-dasharray:none"
         id="path71" />
      <path
         d="m 228.7533,368.5741 -2.4132,12.9959 -28.5236,-2.4264 -15.1119,-19.5949 z"
         style="fill:#868789;fill-rule:evenodd;stroke:#6e7071;stroke-width:0.0578;stroke-linecap:butt;stroke-linejoin:miter;stroke-dasharray:none"
         id="path73" />
      <path
         d="m 226.5456,381.4421 -29.1482,-3.6204 -19.8156,15.4026 18.3773,17.2384 29.8173,-0.4871 z"
         style="fill:#eceded;fill-rule:evenodd;stroke:#6e7071;stroke-width:0.0152;stroke-linecap:butt;stroke-linejoin:miter;stroke-dasharray:none"
         id="path75" />
      <path
         d="m 225.879,395.7209 0.0525,14.2676 -29.9203,0.5325 -18.1855,-17.2432 z"
         style="fill:#868789;fill-rule:evenodd;stroke:#6e7071;stroke-width:0.0151;stroke-linecap:butt;stroke-linejoin:miter;stroke-dasharray:none"
         id="path77" />
      <path
         d="m 288.1448,299.6752 -11.886,-26.5698 -26.0133,-6.3588 -5.0591,24.2056 19.6756,19.1934 z"
         style="fill:#eceded;fill-rule:evenodd;stroke:#6e7071;stroke-width:0.2192;stroke-linecap:butt;stroke-linejoin:miter;stroke-dasharray:none"
         id="path79" />
      <path
         d="m 275.7205,303.7511 -10.493,6.7527 -20.0673,-19.7871 4.8233,-24.0688 z"
         style="fill:#868789;fill-rule:evenodd;stroke:#6e7071;stroke-width:0.2177;stroke-linecap:butt;stroke-linejoin:miter;stroke-dasharray:none"
         id="path81" />
      <path
         d="m 265.6921,310.7729 -20.2353,-19.6658 -26.3366,1.5785 3.3016,24.0648 23.2876,12.338 z"
         style="fill:#eceded;fill-rule:evenodd;stroke:#6e7071;stroke-width:0.1667;stroke-linecap:butt;stroke-linejoin:miter;stroke-dasharray:none"
         id="path83" />
      <path
         d="m 255.5554,319.7341 -8.6829,10.0517 -24.4486,-13.5736 -3.1448,-23.3558 z"
         style="fill:#868789;fill-rule:evenodd;stroke:#6e7071;stroke-width:0.1662;stroke-linecap:butt;stroke-linejoin:miter;stroke-dasharray:none"
         id="path85" />
      <path
         d="m 247.43,329.6897 -24.6815,-13.0956 -26.9467,9.0965 10.7229,21.6417 26.6572,6.8494 z"
         style="fill:#eceded;fill-rule:evenodd;stroke:#6e7071;stroke-width:0.1026;stroke-linecap:butt;stroke-linejoin:miter;stroke-dasharray:none"
         id="path87" />
      <path
         d="m 240.3147,342.4153 -6.905,12.1046 -27.1626,-7.1583 -10.2359,-21.5489 z"
         style="fill:#868789;fill-rule:evenodd;stroke:#6e7071;stroke-width:0.1026;stroke-linecap:butt;stroke-linejoin:miter;stroke-dasharray:none"
         id="path89" />
      <path
         d="m 301.5569,323.3165 a 48.5106,86.908 0 0 1 48.5107,86.908 48.5106,86.908 0 1 1 -48.5107,-86.908 z"
         style="fill:#ffcb00;fill-rule:evenodd;stroke:#ffcb00;stroke-width:0.1116;stroke-linecap:butt;stroke-linejoin:miter;stroke-dasharray:none"
         id="path91" />
      <path
         d="m 301.9138,297.5563 a 83.26,115.0079 0 0 1 83.26,115.0079 83.26,115.0079 0 1 1 -83.26,-115.0079 z"
         style="fill:#006828;fill-rule:evenodd"
         id="path93" />
      <g
         id="Layer1003" />
      <path
         d="m 301.9135,318.601 a 62.7848,93.9632 0 0 1 62.7848,93.9632 62.7848,93.9632 0 1 1 -62.7848,-93.9632 z"
         style="fill:#62af77;fill-rule:evenodd"
         id="path96" />
      <path
         d="m 301.9135,318.6013 a 62.7848,93.9632 0 0 1 62.7848,93.9632 62.7848,93.9632 0 1 1 -62.7848,-93.9632 z"
         style="fill:#eea000;fill-rule:evenodd"
         id="path98" />
      <g
         id="Layer1004" />
      <path
         d="m 301.9135,340.503 a 39.6216,72.0612 0 0 1 39.6216,72.0612 39.6216,72.0612 0 1 1 -39.6216,-72.0612 z"
         style="fill:#fff8b2;fill-rule:evenodd"
         id="path101" />
      <path
         d="m 301.9138,297.5563 a 83.26,115.0079 0 0 1 83.26,115.0079 83.26,115.0079 0 1 1 -83.26,-115.0079 z"
         style="fill:#008bd0;fill-rule:evenodd;stroke:#d9dadb;stroke-width:2.9009;stroke-linecap:butt;stroke-linejoin:miter;stroke-dasharray:none;fill-opacity:1"
         id="path103" />
      <path
         d="m 301.9135,318.6013 a 62.7848,93.9632 0 0 1 62.7848,93.9632 62.7848,93.9632 0 1 1 -62.7848,-93.9632 z"
         style="fill:#ffdc00;fill-rule:evenodd;stroke:#d9dadb;stroke-width:2.9159;stroke-linecap:butt;stroke-linejoin:miter;stroke-dasharray:none"
         id="path105" />
      <path
         d="m 301.9135,340.5022 a 39.6216,72.0612 0 0 1 39.6216,72.0612 39.6216,72.0612 0 1 1 -39.6216,-72.0612 z"
         style="fill:#008bd0;fill-rule:evenodd;stroke:#d9dadb;stroke-width:2.7075;stroke-linecap:butt;stroke-linejoin:miter;stroke-dasharray:none;filter:url(#filter102821)"
         id="path107" />
      <path
         d="m 301.4599,590.7505 a 11.2796,8.2791 0 0 1 11.2796,8.2791 11.2796,8.2791 0 1 1 -11.2796,-8.2791 z"
         style="fill:#eceded;fill-rule:evenodd;stroke:#868789;stroke-width:1.3049;stroke-linecap:butt;stroke-linejoin:miter;stroke-dasharray:none"
         id="path109" />
      <path
         d="m 286.481,587.3178 c 10.3154,1.4154 20.6309,1.4153 30.9466,0 2.0526,-0.2816 3.781,1.433 3.781,3.1847 v 3.45 c 0,1.7517 -1.9302,2.3866 -3.781,3.1848 -9.8463,4.2464 -20.2662,4.2461 -30.9466,0 -1.8805,-0.7475 -3.781,-1.4331 -3.781,-3.1848 v -3.45 c 0,-1.7517 1.7284,-3.4663 3.781,-3.1847 z"
         style="fill:#eceded;fill-rule:evenodd;stroke:#868789;stroke-width:1.3632;stroke-linecap:butt;stroke-linejoin:miter;stroke-dasharray:none"
         id="path111" />
      <g
         id="Layer1005">
        <path
           d="m 319.5851,529.1588 30.2906,-11.8133 v 38.469 l -29.9877,-9.3901 z"
           style="fill:#868789;fill-rule:evenodd"
           id="path113" />
        <path
           d="m 322.0814,530.6542 25.298,-9.6739 v 31.5023 l -25.045,-7.6896 z"
           style="fill:#eceded;fill-rule:evenodd"
           id="path115" />
      </g>
      <g
         id="Layer1006">
        <path
           d="M 282.6306,529.1588 252.34,517.3455 v 38.469 l 29.9877,-9.3901 z"
           style="fill:#868789;fill-rule:evenodd"
           id="path118" />
        <path
           d="m 280.1343,530.6542 -25.2979,-9.6739 v 31.5023 l 25.0449,-7.6896 z"
           style="fill:#eceded;fill-rule:evenodd"
           id="path120" />
      </g>
      <g
         id="Layer1007">
        <path
           d="m 280.5103,525.8268 v 23.0209 h 40.8923 v -23.0209 z"
           style="fill:#868789;fill-rule:evenodd"
           id="path123" />
        <path
           d="m 282.9754,528.1502 v 18.3745 h 35.962 v -18.3745 z"
           style="fill:#eceded;fill-rule:evenodd"
           id="path125" />
      </g>
      <path
         style="fill:#008000;fill-opacity:1;stroke-width:0.375844"
         d="m 312.70192,296.88287 c -1.34365,-0.27928 -4.48846,-0.62214 -6.98848,-0.76192 l -4.54549,-0.25414 -0.21627,-29.7295 c -0.11895,-16.35123 -0.18356,-29.76221 -0.14358,-29.80219 0.04,-0.04 3.95493,4.9431 8.69989,11.07352 l 8.62721,11.14621 0.008,17.01896 c 0.005,9.36042 -0.10028,17.01929 -0.23291,17.01971 -0.25692,7.5e-4 -0.86366,1.87642 -0.76012,2.34978 0.0339,0.15504 -0.11746,0.28189 -0.33638,0.28189 -0.21891,0 -0.29349,0.16913 -0.16574,0.37584 0.12776,0.20671 0.025,0.37584 -0.22838,0.37584 -0.25336,0 -0.34938,0.11129 -0.21336,0.2473 0.26464,0.26464 -0.43174,1.28612 -0.82577,1.21128 -0.12972,-0.0246 -1.3352,-0.27331 -2.67884,-0.55258 z"
         id="path103289" />
      <path
         style="fill:#008000;fill-opacity:1;stroke-width:0.375844"
         d="m 336.56799,306.08237 c -1.65372,-1.04043 -3.97925,-2.3892 -5.16785,-2.99726 -2.14514,-1.09739 -2.70153,-1.93447 -1.57352,-2.36733 0.32318,-0.12401 0.49328,-0.37808 0.37801,-0.56459 -0.11528,-0.18651 0.0539,-0.44021 0.37584,-0.56377 0.32198,-0.12355 0.47942,-0.39616 0.34986,-0.6058 -0.12956,-0.20963 0.0288,-0.48262 0.35202,-0.60663 0.32318,-0.12401 0.58759,-0.46108 0.58759,-0.74903 0,-0.28796 0.16913,-0.52356 0.37584,-0.52356 0.20672,0 0.37585,-0.2356 0.37585,-0.52355 0,-0.28796 0.26441,-0.62502 0.58759,-0.74903 0.32317,-0.12402 0.49327,-0.37808 0.378,-0.5646 -0.11527,-0.18651 0.0539,-0.44021 0.37584,-0.56376 0.32199,-0.12356 0.49112,-0.37725 0.37585,-0.56377 -0.11528,-0.18651 0.0431,-0.43609 0.35202,-0.55462 0.30888,-0.11853 0.5616,-0.47451 0.5616,-0.79107 0,-0.31656 0.16913,-0.57556 0.37585,-0.57556 0.20671,0 0.37584,-0.2356 0.37584,-0.52356 0,-0.28795 0.26442,-0.62502 0.58759,-0.74903 0.32317,-0.12401 0.49327,-0.37808 0.378,-0.56459 -0.11527,-0.18652 0.0539,-0.44021 0.37584,-0.56377 0.32199,-0.12356 0.49112,-0.37725 0.37585,-0.56377 -0.11527,-0.18651 0.0539,-0.4402 0.37584,-0.56376 0.32199,-0.12356 0.49112,-0.37725 0.37585,-0.56377 -0.11528,-0.18651 0.0431,-0.43609 0.35202,-0.55462 0.30888,-0.11853 0.5616,-0.45642 0.5616,-0.75086 0,-0.29444 0.26442,-0.63682 0.58759,-0.76083 0.32317,-0.12401 0.49328,-0.37808 0.378,-0.56459 -0.11527,-0.18652 0.0539,-0.44021 0.37585,-0.56377 0.32198,-0.12355 0.49111,-0.37725 0.37584,-0.56376 -0.11527,-0.18652 0.0539,-0.44021 0.37584,-0.56377 0.32199,-0.12356 0.47943,-0.39617 0.34987,-0.6058 -0.12956,-0.20964 0.0289,-0.48262 0.35202,-0.60663 0.32317,-0.12402 0.58759,-0.46108 0.58759,-0.74904 0,-0.28795 0.16913,-0.52355 0.37584,-0.52355 0.20671,0 0.37584,-0.2356 0.37584,-0.52355 0,-0.28796 0.26442,-0.62502 0.58759,-0.74904 0.32317,-0.12401 0.49328,-0.37808 0.378,-0.56459 -0.11527,-0.18651 0.0539,-0.44021 0.37585,-0.56377 0.32198,-0.12355 0.49111,-0.37725 0.37584,-0.56376 -0.11527,-0.18651 0.0431,-0.4361 0.35202,-0.55463 0.30889,-0.11853 0.56161,-0.47451 0.56161,-0.79107 0,-0.31655 0.16913,-0.57556 0.37584,-0.57556 0.20672,0 0.37585,-0.2356 0.37585,-0.52355 0,-0.28796 0.26441,-0.62502 0.58758,-0.74903 0.32318,-0.12402 0.49328,-0.37808 0.37801,-0.5646 -0.11528,-0.18651 0.0539,-0.44021 0.37584,-0.56376 0.32199,-0.12356 0.47942,-0.39617 0.34986,-0.60581 -0.12956,-0.20963 0.0288,-0.48261 0.35203,-0.60663 0.32317,-0.12401 0.58758,-0.46108 0.58758,-0.74903 0,-0.28795 0.16913,-0.52355 0.37585,-0.52355 0.20671,0 0.37584,-0.2356 0.37584,-0.52356 0,-0.28795 0.26441,-0.62502 0.58759,-0.74903 0.32317,-0.12401 0.49327,-0.37808 0.378,-0.5646 -0.11527,-0.18651 0.0539,-0.4402 0.37584,-0.56376 0.32199,-0.12356 0.49112,-0.37725 0.37585,-0.56377 -0.18108,-0.29298 0.89218,-0.98618 1.09712,-0.70861 0.0417,0.0565 0.53302,2.47063 1.09172,5.36462 0.5587,2.894 1.11829,5.51551 1.24352,5.82558 0.12523,0.31007 0.19361,0.84476 0.15195,1.18819 -0.0417,0.34344 0.0941,0.7294 0.30167,0.85769 0.20757,0.12829 0.30779,0.43925 0.22271,0.69102 -0.0851,0.25177 0.21873,2.28352 0.67514,4.515 l 0.82984,4.05724 -8.84345,8.81541 c -4.8639,4.84847 -8.92346,8.8087 -9.02125,8.80051 -0.0978,-0.008 -1.53083,-0.86617 -3.18454,-1.9066 z"
         id="path103328" />
      <path
         style="fill:#008000;fill-opacity:1;stroke-width:0.375844"
         d="m 355.50204,322.15119 -4.36825,-4.99839 5.80658,-4.29258 c 3.19361,-2.36092 6.00498,-4.47138 6.24747,-4.6899 0.24249,-0.21853 4.66913,-3.55387 9.83698,-7.41187 5.16785,-3.85801 9.61222,-7.19973 9.87637,-7.42605 0.4774,-0.40902 0.45081,1.09908 -0.0931,5.2797 -0.18765,1.44231 -0.58977,5.43023 -0.75753,7.51255 -0.0583,0.7235 -0.21029,2.07654 -0.3378,3.00675 -0.29176,2.12862 -0.54076,4.76205 -0.57837,6.11676 -0.0213,0.76828 -0.29101,1.14251 -1.02424,1.42129 -0.54741,0.20812 -5.27109,2.65632 -10.49706,5.44043 -5.22597,2.78411 -9.556,5.05699 -9.62228,5.05085 -0.0663,-0.006 -2.08624,-2.26043 -4.48878,-5.00954 z"
         id="path103367" />
      <path
         style="fill:#008000;fill-opacity:1;stroke-width:0.375844"
         d="m 374.71156,352.6353 c -0.003,-0.25839 -1.33873,-3.12 -2.96939,-6.35913 l -2.96483,-5.88933 1.7479,-0.73263 c 0.96134,-0.40294 5.55331,-2.14279 10.20438,-3.86631 4.65106,-1.72353 12.34646,-4.59292 17.10088,-6.37643 4.75442,-1.78351 8.68938,-3.21166 8.74435,-3.17366 0.055,0.038 -2.07575,4.6188 -4.73492,10.17956 l -4.83487,10.11047 -4.28532,1.37195 c -2.35693,0.75457 -6.06119,1.90473 -8.23169,2.55592 -2.1705,0.65119 -4.97306,1.51369 -6.22791,1.91669 -2.65032,0.85113 -3.54223,0.91721 -3.54858,0.2629 z"
         id="path103406" />
      <path
         style="fill:#008000;fill-opacity:1;stroke-width:0.375844"
         d="m 382.00274,374.15456 c -0.85014,-3.412 -1.48871,-6.26977 -1.41905,-6.3506 0.16658,-0.19329 38.95988,-7.95689 39.09316,-7.82361 0.0564,0.0564 -2.44196,3.39502 -5.55191,7.41915 -3.10995,4.02414 -6.2058,8.03173 -6.87968,8.90575 -0.67388,0.87403 -1.29202,1.52912 -1.37364,1.45576 -0.0816,-0.0734 -5.13773,0.481 -11.23579,1.2319 l -11.08739,1.36528 z"
         id="path103445" />
      <path
         style="fill:#008000;fill-opacity:1;stroke-width:0.375844"
         d="m 386.42015,402.50398 c -0.25915,-4.25115 -0.55913,-7.95858 -0.66663,-8.23874 -0.16255,-0.42357 3.08534,-0.5305 19.28321,-0.63486 10.71327,-0.069 19.51873,-0.11285 19.56769,-0.0974 0.049,0.0154 -3.87165,3.77934 -8.71246,8.36422 l -8.80149,8.33614 h -10.09958 -10.09957 z"
         id="path103484" />
      <path
         style="fill:#008000;fill-opacity:1;stroke-width:0.375844"
         d="m 395.85509,441.97807 c -6.04761,-0.85603 -11.09819,-1.65895 -11.2235,-1.78426 -0.12531,-0.12531 -0.0426,-1.29412 0.18371,-2.59735 0.22635,-1.30323 0.66642,-4.55238 0.97792,-7.22032 0.3115,-2.66794 0.64879,-4.93323 0.74954,-5.03398 0.26273,-0.26273 37.78472,2.29989 37.78472,2.58057 0,0.20951 -14.04123,12.82074 -16.4844,14.80558 l -0.99233,0.80617 z"
         id="path103523" />
      <path
         style="fill:#008000;fill-opacity:1;stroke-width:0.375844"
         d="m 395.57544,473.94056 c -0.20671,-0.0698 -4.51952,-1.34797 -9.58401,-2.84045 -5.0645,-1.49247 -9.2417,-2.73813 -9.28267,-2.76811 -0.0966,-0.0707 3.95078,-11.9251 4.13408,-12.1084 0.11058,-0.11058 37.84703,7.12894 39.12779,7.50644 0.42805,0.12616 -22.94031,10.40755 -23.56308,10.36705 -0.25094,-0.0163 -0.6254,-0.0868 -0.83211,-0.15653 z"
         id="path103562" />
      <path
         style="fill:#008000;fill-opacity:1;stroke-width:0.375844"
         d="m 372.46106,498.88945 c -4.44436,-2.89113 -8.31056,-5.39202 -8.59158,-5.55755 -0.39757,-0.23418 -0.17593,-0.79287 0.9989,-2.51805 0.83041,-1.21941 2.43712,-3.82384 3.57047,-5.78762 1.13334,-1.96379 2.20997,-3.57052 2.3925,-3.57052 0.9001,0 34.31003,16.13948 33.87882,16.36599 -0.26968,0.14165 -4.71857,1.37971 -9.88642,2.75123 -5.16785,1.37152 -10.2566,2.7474 -11.30834,3.0575 -1.05174,0.3101 -2.15108,0.55297 -2.44298,0.53972 -0.29191,-0.0133 -4.16702,-2.38958 -8.61137,-5.2807 z"
         id="path103601" />
      <path
         style="fill:#008000;fill-opacity:1;stroke-width:0.375844"
         d="m 252.48411,540.22178 c 0.0578,-9.27272 -0.0307,-16.8595 -0.19674,-16.8595 -0.16601,0 -1.65091,1.36569 -3.29977,3.03487 l -2.99793,3.03486 -4.13428,-0.26664 c -2.27386,-0.14665 -4.72624,-0.32454 -5.44974,-0.39531 -0.72349,-0.0708 -2.49936,-0.21379 -3.94635,-0.31781 -1.447,-0.10402 -3.56112,-0.2681 -4.69805,-0.36462 -1.13693,-0.0965 -3.23475,-0.26679 -4.66183,-0.37838 -1.42708,-0.11159 -2.6577,-0.26591 -2.73471,-0.34292 -0.11817,-0.11817 2.12137,-1.9662 10.96706,-9.04983 2.81206,-2.25191 6.42381,-5.12221 6.77116,-5.38114 0.21,-0.15654 1.30934,-1.06085 2.44298,-2.00957 3.79279,-3.17411 8.332,-6.73154 8.58933,-6.73154 0.14006,0 1.60372,1.36599 3.25259,3.03553 1.64886,1.66954 4.20825,4.01652 5.68754,5.21551 l 2.68961,2.17998 -2.03511,2.00982 c -1.1193,1.10541 -1.98296,2.16624 -1.91923,2.35742 0.0637,0.19118 3.23635,1.57756 7.05028,3.08085 5.98362,2.35848 6.98596,2.65389 7.31027,2.15444 1.43861,-2.21547 1.11876,-2.20253 5.63874,-0.22806 l 4.1332,1.80552 20.45072,0.10343 20.45073,0.10343 2.66366,-1.00473 c 1.46501,-0.5526 3.46269,-1.40317 4.4393,-1.89014 l 1.77563,-0.88542 0.64756,1.03503 c 0.35615,0.56927 0.6751,1.08186 0.70877,1.1391 0.0646,0.10986 13.76613,-5.18428 14.04984,-5.42873 0.0909,-0.0783 -0.66279,-0.98309 -1.67485,-2.0106 -1.12532,-1.14251 -1.70051,-1.99599 -1.48072,-2.19717 0.19767,-0.18092 1.54331,-1.3046 2.99031,-2.49705 1.447,-1.19246 3.9285,-3.43854 5.51446,-4.99129 2.47615,-2.42431 2.95857,-2.74888 3.4145,-2.2973 0.29203,0.28924 1.00612,0.86415 1.58686,1.27757 0.58075,0.41343 1.58116,1.18964 2.22315,1.72491 1.41614,1.18075 1.42377,1.18689 7.74451,6.22436 2.79064,2.22407 5.26761,4.22054 5.5044,4.43659 0.23678,0.21606 0.97629,0.81565 1.64335,1.33244 0.66706,0.51678 1.61039,1.29303 2.09629,1.72499 0.4859,0.43197 1.32897,1.10849 1.87349,1.50338 0.54452,0.39489 1.43702,1.09093 1.98332,1.54675 0.54631,0.45582 1.65078,1.34375 2.45438,1.97318 1.15087,0.90143 1.31047,1.15688 0.75168,1.20313 -0.39017,0.0323 -1.13223,0.10669 -1.64901,0.16532 -0.51679,0.0586 -2.20808,0.19589 -3.75844,0.30503 -2.62678,0.18491 -4.59071,0.33751 -9.77193,0.75932 -1.13693,0.0926 -3.5011,0.27624 -5.25372,0.40818 -1.75262,0.13194 -3.27478,0.24705 -3.38259,0.25578 -1.50371,0.12187 -2.32495,-0.40301 -5.49562,-3.51237 -1.92888,-1.89159 -3.40214,-3.60902 -3.2739,-3.81651 0.13196,-0.21352 0.0448,-0.26087 -0.20075,-0.10909 -0.31661,0.19567 -0.43392,4.44474 -0.43392,15.71652 v 15.44835 l 0.97275,1.65986 c 0.53501,0.91293 0.91555,1.71634 0.84564,1.78537 -0.0699,0.069 -2.57947,-0.88257 -5.57682,-2.11465 -2.99736,-1.23209 -9.50885,-3.52232 -14.46998,-5.08941 -4.96114,-1.56708 -9.23166,-2.93012 -9.49006,-3.02895 -0.30166,-0.11539 -0.4698,0.17098 -0.4698,0.80011 0,0.96091 -0.0499,0.97982 -2.58531,0.97982 -2.53267,0 -2.59506,0.0236 -3.06441,1.15665 -0.2635,0.63615 -0.87803,1.41804 -1.36562,1.73752 -0.80787,0.52934 -22.806,4.20252 -25.35954,4.23446 -0.54556,0.007 -1.38145,-0.30301 -1.85753,-0.68852 -1.25273,-1.0144 -1.23911,-4.14891 0.0239,-5.4933 l 0.88949,-0.94681 h -3.61106 c -3.52062,0 -3.61404,-0.0224 -3.72999,-0.89557 l -0.11893,-0.89558 -7.89271,2.52483 c -6.83843,2.18758 -10.58291,3.61132 -18.60426,7.07375 l -1.6913,0.73005 z m 49.28417,12.63934 c 6.07926,-0.92753 11.19544,-1.68641 11.36927,-1.68641 0.54146,0 1.81943,-1.47333 1.81943,-2.09756 0,-0.53245 -1.32483,-0.58126 -12.75171,-0.4698 -12.26285,0.11961 -12.79236,0.15462 -13.81225,0.91322 -0.71271,0.53012 -1.10045,1.19435 -1.1822,2.02519 -0.25627,2.60441 0.42815,3.44133 2.56463,3.13603 0.51679,-0.0738 5.91356,-0.89315 11.99283,-1.82067 z m -33.93098,-4.15132 12.07569,-3.68859 0.27274,-7.10664 c 0.15001,-3.90865 0.1281,-7.23173 -0.0487,-7.38463 -0.1768,-0.15289 -5.14164,-2.10656 -11.03299,-4.34148 -5.89135,-2.23492 -11.51491,-4.37458 -12.4968,-4.7548 l -1.78526,-0.69132 v 16.00808 c 0,12.65194 0.0985,15.97033 0.46981,15.82802 0.25839,-0.099 5.90387,-1.83992 12.5455,-3.86864 z m 79.81807,-12.00507 c 0,-8.78535 -0.0423,-15.97286 -0.094,-15.97225 -0.22055,0.003 -25.56434,9.75234 -25.60571,9.85049 -0.0251,0.0595 0.006,3.32172 0.0691,7.24929 l 0.11474,7.14103 12.47602,3.82944 c 6.86182,2.1062 12.60288,3.83978 12.75791,3.8524 0.15504,0.0126 0.28188,-7.16506 0.28188,-15.9504 z m -28.56411,0.56376 v -9.39609 h -18.22842 -18.22842 v 9.39609 9.3961 h 18.22842 18.22842 z"
         id="path103640" />
      <path
         style="fill:#008000;fill-opacity:1;stroke-width:0.375844"
         d="m 219.30477,503.07187 c -1.24029,-0.37193 -5.80679,-1.6194 -10.14778,-2.77216 -4.34099,-1.15275 -8.62885,-2.31273 -9.52856,-2.57771 l -1.63584,-0.4818 16.85751,-7.96247 c 9.27163,-4.37936 17.13901,-8.07025 17.48306,-8.20199 0.46777,-0.17911 0.88424,0.21781 1.65112,1.5736 0.56406,0.99722 2.1007,3.5595 3.41477,5.69396 1.31406,2.13446 2.3892,4.00128 2.3892,4.14849 0,0.41901 -17.10297,11.33089 -17.69792,11.29146 -0.29178,-0.0193 -1.54528,-0.33945 -2.78556,-0.71138 z"
         id="path103679" />
      <path
         style="fill:#008000;fill-opacity:1;stroke-width:0.375844"
         d="m 195.4387,468.85484 c -6.09807,-2.67844 -11.39942,-5.00348 -11.78078,-5.16676 -0.45226,-0.19364 6.24579,-1.6547 19.26055,-4.20135 10.97467,-2.14745 19.99687,-3.83334 20.04934,-3.74642 0.52085,0.86286 3.93239,11.87092 3.73723,12.05895 -0.28025,0.26999 -19.29636,5.96019 -19.84614,5.93857 -0.18305,-0.007 -5.32214,-2.20455 -11.4202,-4.88299 z"
         id="path103718" />
      <path
         style="fill:#008000;fill-opacity:1;stroke-width:0.375844"
         d="m 187.51702,435.23905 -8.86129,-7.90482 19.38491,-1.31546 19.38491,-1.31545 0.62298,5.44974 c 0.34263,2.99735 0.78214,6.42222 0.97667,7.61083 0.25094,1.53326 0.23374,2.16456 -0.0592,2.17301 -0.2271,0.007 -5.40223,0.7308 -11.5003,1.60945 l -11.08738,1.59752 z"
         id="path103757" />
      <path
         style="fill:#008000;fill-opacity:1;stroke-width:0.375844"
         d="m 187.38629,402.04939 c -8.58524,-8.13594 -8.61155,-8.16571 -7.32895,-8.29383 1.35351,-0.1352 32.56135,1.31199 35.95891,1.66751 l 1.9733,0.20649 -0.21864,1.38235 c -0.12025,0.7603 -0.33172,3.9193 -0.46992,7.02001 l -0.25128,5.63766 -2.44299,0.23795 c -1.34364,0.13087 -6.07927,0.25351 -10.52362,0.27252 l -8.08064,0.0346 z"
         id="path103796" />
      <path
         style="fill:#008000;fill-opacity:1;stroke-width:0.375844"
         d="m 209.72076,379.20006 c -5.47793,-0.69376 -10.59712,-1.3224 -11.376,-1.39698 -1.36149,-0.13036 -1.67689,-0.47416 -8.17375,-8.90976 -3.71668,-4.82579 -6.70827,-8.82351 -6.64796,-8.88382 0.0893,-0.0893 36.4575,6.92283 39.22207,7.5624 0.78652,0.18195 0.79393,0.23787 0.26164,1.97444 -0.3013,0.98295 -0.97199,3.56305 -1.49044,5.73354 -1.20743,5.05497 -1.27236,5.26967 -1.57915,5.22169 -0.14111,-0.0221 -4.73849,-0.60774 -10.21641,-1.30151 z"
         id="path103835" />
      <path
         style="fill:#008000;fill-opacity:1;stroke-width:0.375844"
         d="m 226.4458,352.54176 c -3.30628,-0.89937 -14.94734,-3.94209 -17.52245,-4.57999 l -2.4887,-0.61649 -1.90591,-3.97923 c -6.80198,-14.20146 -7.95686,-16.70093 -7.79257,-16.86523 0.13775,-0.13774 37.52268,13.63361 38.08754,14.03017 0.1797,0.12616 -5.96102,12.3804 -6.24087,12.45408 -0.1418,0.0373 -1.10347,-0.16216 -2.13704,-0.44331 z"
         id="path103874" />
      <path
         style="fill:#008000;fill-opacity:1;stroke-width:0.375844"
         d="m 239.96765,325.52181 c -2.06245,-1.08918 -4.93382,-2.63132 -6.38082,-3.42698 -5.76514,-3.17007 -7.20163,-3.93846 -8.64973,-4.62675 -1.88577,-0.89633 -2.52614,-1.65592 -2.68725,-3.18752 -0.15591,-1.48216 -0.38231,-3.22029 -1.08681,-8.34383 -0.14212,-1.03357 -0.30467,-2.30204 -0.36122,-2.81883 -0.15,-1.37066 -0.60741,-4.82801 -1.12179,-8.47902 -0.18779,-1.33294 -0.0149,-1.40184 1.12811,-0.44968 0.20672,0.17219 2.15171,1.60544 4.32221,3.18499 2.17049,1.57955 4.13704,3.05296 4.37011,3.27424 0.23306,0.22128 0.798,0.65603 1.25543,0.9661 1.54503,1.04732 8.46528,6.1453 8.89234,6.55078 0.23307,0.22128 0.79801,0.65602 1.25544,0.96609 1.0377,0.70343 8.27234,5.99086 8.81834,6.44489 1.85161,1.53971 2.25782,1.82367 2.60878,1.82367 0.22029,0 -0.54082,0.9725 -1.69137,2.1611 -1.54786,1.59907 -6.30233,7.04337 -6.87274,7.86991 -0.027,0.0391 -1.73657,-0.81998 -3.79903,-1.90916 z"
         id="path103913" />
      <path
         style="fill:#008000;fill-opacity:1;stroke-width:0.375844"
         d="m 261.51098,306.36131 c -0.97213,-1.10122 -2.6977,-2.74659 -3.83462,-3.65638 -1.13691,-0.90979 -2.07512,-1.85418 -2.0849,-2.09865 -0.01,-0.24446 -0.34038,-0.54686 -0.73467,-0.672 -0.39429,-0.12515 -2.63298,-2.2702 -4.97488,-4.76679 -3.68439,-3.92775 -4.25867,-4.7106 -4.26304,-5.81121 -0.003,-0.69958 0.14152,-1.272 0.32065,-1.27205 0.17914,-4e-5 0.246,-0.417 0.14859,-0.92657 -0.0974,-0.50957 -0.062,-0.97468 0.0787,-1.03357 0.24043,-0.10063 2.23991,-9.52949 2.4536,-11.57031 0.0541,-0.51678 0.22403,-1.24288 0.37759,-1.61354 0.15357,-0.37066 0.17522,-0.77793 0.0481,-0.90503 -0.1271,-0.1271 -0.0445,-0.45591 0.18354,-0.73069 0.22804,-0.27478 0.31853,-0.75003 0.20107,-1.05611 -0.11745,-0.30609 -0.0518,-0.65648 0.14588,-0.77866 0.19768,-0.12218 0.35943,-0.62967 0.35943,-1.12777 0,-0.64905 0.15911,-0.84457 0.5616,-0.69012 0.30889,0.11853 0.47446,0.35652 0.36794,0.52887 -0.10652,0.17234 0.0787,0.4658 0.41168,0.65213 0.33294,0.18632 0.61577,0.49269 0.62852,0.68082 0.0391,0.57783 1.86693,3.16089 2.23666,3.16089 0.19145,0 0.24998,0.15873 0.13007,0.35274 -0.1199,0.19401 0.0272,0.48999 0.32697,0.65773 0.29973,0.16774 0.55532,0.43293 0.56796,0.58932 0.0439,0.54347 2.01163,3.28617 2.35759,3.28617 0.19145,0 0.24282,0.17033 0.11416,0.3785 -0.12866,0.20818 0.0305,0.47997 0.35366,0.60398 0.32318,0.12401 0.58759,0.43638 0.58759,0.69415 0,0.25777 0.41475,0.91619 0.92166,1.46316 0.50692,0.54697 0.80289,0.99987 0.65773,1.00645 -0.14517,0.007 0.0644,0.26027 0.46562,0.56376 0.40126,0.3035 0.57039,0.55441 0.37585,0.55757 -0.19455,0.003 -0.17566,0.13001 0.042,0.28188 0.21763,0.15187 0.78109,0.91037 1.25215,1.68554 0.47105,0.77518 1.02178,1.40942 1.22383,1.40942 0.20206,0 0.26927,0.15873 0.14937,0.35274 -0.11991,0.19401 0.0272,0.48999 0.32696,0.65773 0.29974,0.16774 0.55532,0.43293 0.56796,0.58932 0.0439,0.54347 2.01164,3.28618 2.3576,3.28618 0.19144,0 0.24997,0.15873 0.13007,0.35274 -0.11991,0.19401 0.0272,0.48999 0.32696,0.65773 0.29974,0.16774 0.55532,0.43293 0.56797,0.58932 0.0439,0.54346 2.01163,3.28617 2.35759,3.28617 0.19144,0 0.24281,0.17033 0.11415,0.3785 -0.12865,0.20817 0.0305,0.47996 0.35367,0.60398 0.32317,0.12401 0.58758,0.43638 0.58758,0.69415 0,0.25777 0.41475,0.91619 0.92167,1.46316 0.50691,0.54697 0.80289,0.99987 0.65772,1.00645 -0.14516,0.007 0.0644,0.26026 0.46563,0.56376 0.40126,0.3035 0.59196,0.55181 0.42378,0.55181 -0.16817,0 -0.1132,0.23205 0.12217,0.51565 0.3406,0.4104 0.1795,0.61856 -0.7893,1.01985 -0.66948,0.27731 -3.12324,1.652 -5.45279,3.05487 -2.32956,1.40286 -4.27919,2.54702 -4.33253,2.54256 -0.0533,-0.004 -0.89236,-0.90909 -1.86448,-2.0103 z"
         id="path103952" />
      <path
         style="fill:#008000;fill-opacity:1;stroke-width:0.375844"
         d="m 321.82966,592.32959 c 0.003,-1.03357 0.0758,-1.41179 0.1622,-0.84048 0.0864,0.5713 0.0841,1.41695 -0.005,1.87922 -0.0892,0.46226 -0.15989,-0.005 -0.15707,-1.03874 z"
         id="path104067" />
      <path
         style="fill:#008000;fill-opacity:1;stroke-width:0.375844"
         d=""
         id="path104106" />
      <path
         style="fill:#008000;fill-opacity:1;stroke-width:0.0469805"
         d="m 300.65143,607.9228 c -1.15158,-0.0876 -2.00754,-0.21626 -2.91279,-0.43793 -2.31187,-0.56612 -4.27469,-1.61438 -5.74877,-3.07018 -1.47606,-1.45777 -2.23421,-2.99821 -2.41742,-4.91184 l -0.0554,-0.57852 -0.86914,-0.29649 c -1.5813,-0.53944 -3.30061,-1.2117 -4.15777,-1.6257 -1.3303,-0.64252 -2.0399,-1.33324 -2.33878,-2.27655 -0.10141,-0.32004 -0.1042,-0.38748 -0.1042,-2.51345 0,-2.36881 6.1e-4,-2.37551 0.27755,-3.06114 0.54005,-1.33705 1.8162,-2.30566 3.28154,-2.49073 0.41617,-0.0526 0.53541,-0.0471 1.40064,0.0641 l 0.94574,0.12154 0.35165,-0.16248 c 0.19341,-0.0894 0.5137,-0.20268 0.71174,-0.25183 0.19805,-0.0492 3.35157,-0.54469 7.00782,-1.1012 l 6.64774,-1.01184 4.0919,0.0122 4.0919,0.0122 -9.3772,1.4268 c -5.15746,0.78473 -9.4512,1.44136 -9.54164,1.45916 -0.19271,0.0379 0.40602,0.0937 2.53695,0.2362 2.49813,0.16708 3.36834,0.19714 6.46072,0.22319 3.85844,0.0325 6.49069,-0.0526 9.8415,-0.31813 1.74695,-0.13844 4.0105,-0.37179 4.05729,-0.41826 0.0223,-0.0221 0.0319,-0.4279 0.0215,-0.90175 -0.0218,-0.98668 -0.0728,-1.16987 -0.42632,-1.53103 l -0.19545,-0.19967 h 0.80206 0.80207 l 0.0738,0.19967 c 0.15071,0.40801 0.1734,0.59524 0.17366,1.4329 1.8e-4,0.65419 0.0142,0.85751 0.059,0.8579 0.0323,2.7e-4 0.43503,-0.0462 0.89495,-0.10317 0.721,-0.0894 0.89253,-0.0964 1.24498,-0.0513 0.92767,0.11888 1.70616,0.49515 2.35968,1.14053 0.45557,0.44988 0.7012,0.80032 0.92188,1.31521 0.27322,0.63749 0.28923,0.82262 0.27828,3.2184 -0.01,2.10073 -0.0128,2.16988 -0.11523,2.47542 -0.29274,0.8733 -0.9942,1.52871 -2.33114,2.17808 -1.31771,0.64005 -4.01367,1.71065 -5.3857,2.13876 l -0.64068,0.1999 -0.0318,0.33283 c -0.14261,1.49166 -0.83791,3.0256 -1.93967,4.27918 -1.8322,2.08467 -4.82572,3.51797 -8.13992,3.89741 -0.63006,0.0721 -2.15778,0.12582 -2.60741,0.0916 z m 2.6309,-1.35716 c 2.27908,-0.30384 4.27444,-1.06913 5.87263,-2.25235 0.58352,-0.43201 1.50225,-1.38239 1.86759,-1.93191 0.38223,-0.57493 0.6942,-1.2229 0.8526,-1.77088 0.14235,-0.49241 0.20125,-0.88149 0.13345,-0.88149 -0.0262,0 -0.35216,0.0734 -0.72427,0.1631 -5.57461,1.34389 -11.17929,1.43592 -16.94719,0.27827 -0.85182,-0.17096 -2.15777,-0.48021 -3.02176,-0.71555 l -0.50372,-0.1372 0.0283,0.2879 c 0.0565,0.57514 0.28516,1.34367 0.57483,1.93223 0.36161,0.73472 0.75929,1.28889 1.36742,1.90544 1.75371,1.77802 4.42569,2.91493 7.4995,3.19098 0.65502,0.0588 2.3327,0.0205 3.00063,-0.0685 z m 0.094,-6.92977 c 5.11559,-0.17147 9.37152,-1.1765 14.60105,-3.44799 1.54303,-0.67023 2.13791,-1.06318 2.42059,-1.59892 l 0.12622,-0.23921 0.0146,-1.99667 c 0.01,-1.36371 -0.002,-2.08603 -0.0392,-2.27855 -0.1632,-0.8544 -0.89101,-1.66897 -1.76169,-1.97169 -0.54868,-0.19076 -0.79644,-0.19147 -2.23051,-0.006 -3.14293,0.4057 -5.97898,0.65411 -9.56052,0.83739 -1.58734,0.0812 -8.47961,0.0816 -9.98335,5.9e-4 -3.83793,-0.20687 -6.41816,-0.43253 -9.58401,-0.83823 -0.95575,-0.12247 -1.37139,-0.15733 -1.59717,-0.13396 -1.05317,0.10901 -2.02234,0.90829 -2.33337,1.92434 -0.0781,0.2553 -0.0863,0.47678 -0.0863,2.34902 0,2.01935 0.002,2.07222 0.10152,2.2868 0.29262,0.63318 1.00619,1.09602 2.81127,1.8235 5.07534,2.04545 9.90685,3.12872 14.6579,3.28645 0.56846,0.0189 1.05471,0.0373 1.08055,0.0409 0.0258,0.004 0.63894,-0.0132 1.36244,-0.0375 z"
         id="path104223" />
      <path
         style="fill:#008000;fill-opacity:1;stroke-width:0.0469805"
         d="m 302.883,584.29068 c 0.0388,-0.01 2.22687,-0.34904 4.86248,-0.75385 4.31353,-0.66253 4.85299,-0.73614 5.40275,-0.73719 0.53821,-10e-4 0.65582,0.0138 0.99027,0.12457 0.61935,0.20518 1.1823,0.61476 1.49735,1.0894 0.0917,0.1382 0.16678,0.26354 0.16678,0.27854 0,0.015 -0.35685,0.0273 -0.79299,0.0273 -0.75681,0 -0.80533,-0.006 -1.06319,-0.1237 -0.42195,-0.19317 -0.87716,-0.198 -2.0058,-0.0213 l -0.9257,0.14496 -4.10121,-0.005 c -2.25567,-0.003 -4.0695,-0.0135 -4.03074,-0.0233 z"
         id="path104262" />
      <path
         style="fill:#008000;fill-opacity:1;stroke-width:0.0664404"
         d=""
         id="path104301" />
      <path
         style="fill:#008000;fill-opacity:1;stroke-width:0.0664404"
         d="m 357.28324,529.76251 c -0.14273,-0.14616 -0.24229,-0.26576 -0.22125,-0.26576 0.021,0 0.17753,0.0616 0.34776,0.13691 0.54177,0.23965 0.97121,0.26944 2.33687,0.16211 0.69151,-0.0543 1.37688,-0.095 1.52304,-0.0904 0.27591,0.009 -2.98376,0.30804 -3.45802,0.31754 -0.22958,0.005 -0.30683,-0.0335 -0.5284,-0.26038 z"
         id="path104340" />
      <path
         style="fill:#008000;fill-opacity:1;stroke-width:0.0664404"
         d="m 361.68492,529.64801 c 0.11876,-0.0147 0.3131,-0.0147 0.43186,0 0.11876,0.0147 0.0216,0.0268 -0.21593,0.0268 -0.23753,0 -0.33469,-0.0121 -0.21593,-0.0268 z"
         id="path104379" />
      <text
         xml:space="preserve"
         id="text110123"
         style="fill:black;fill-opacity:1;line-height:1.25;stroke:none;font-family:sans-serif;font-style:normal;font-weight:normal;font-size:40px;white-space:pre;shape-inside:url(#rect110125)" />
      <path
         id="text117829"
         style="font-style:normal;font-weight:normal;font-size:40px;line-height:0.05;font-family:sans-serif;white-space:pre;shape-inside:url(#rect117831);fill:#008000;fill-opacity:1;stroke:none;stroke-width:0.975403"
         d="m 288.61523,546.82227 c 0.0657,0.0103 0.1313,0.0245 0.19727,0.0312 0.0966,0.009 0.20491,0.019 0.3125,0.0273 -0.16052,-0.0378 -0.32995,-0.0568 -0.50977,-0.0586 z m 25.05665,0 c 0.13704,0.0635 0.27879,0.14016 0.42968,0.24218 0.0388,0.0263 0.0752,0.11757 0.10938,0.21875 0.0808,-0.10621 0.1746,-0.21594 0.27734,-0.29687 -0.24553,-0.10484 -0.51765,-0.15937 -0.8164,-0.16406 z m -25.24415,0.008 c -0.31851,0.0202 -0.60606,0.0986 -0.86132,0.23828 0.0161,10e-4 0.0269,0.003 0.0449,0.004 0.0259,0.008 0.0508,0.0163 0.0762,0.0254 0.0125,-0.019 0.0172,-0.0251 0.0312,-0.0469 0.23606,-0.0729 0.46859,-0.17034 0.70898,-0.2207 z m 25.95313,0.41601 c -0.0146,2e-5 -0.0288,0.003 -0.0273,0.0137 0.002,0.0115 0.002,0.0258 0.004,0.0371 0.015,-0.0136 0.0322,-0.0251 0.0469,-0.0391 0.006,-0.006 -0.009,-0.0117 -0.0234,-0.0117 z m -28.19336,2.50782 c -0.0467,0.37835 -0.0781,0.77882 -0.0781,1.22851 0,0.38373 0.0205,0.73601 0.0547,1.06836 0.007,-0.0195 0.0153,-0.0387 0.0215,-0.0586 0.008,-0.0264 0.007,-0.028 0.0137,-0.0488 v -0.002 c -0.006,-0.0411 -0.0116,-0.10839 -0.0254,-0.22852 0.012,-0.29607 0.0167,-0.5904 0.0137,-0.88672 -0.002,-0.2213 -9e-5,-0.44273 0,-0.66406 -9e-5,-0.13606 -2e-5,-0.27214 0,-0.4082 z m 8.35352,0.12304 c -0.002,0.002 -0.004,0.002 -0.006,0.004 0.007,10e-4 0.0129,0.003 0.0195,0.004 -0.004,-0.002 -0.01,-0.006 -0.0137,-0.008 z m -8.29493,2.17578 c 0.0658,0.16924 0.29588,0.55112 0.22657,0.40821 -0.13672,-0.2818 -0.19309,-0.36015 -0.22657,-0.40821 z m 21.76172,0.46094 c -0.006,0.0199 -0.005,0.0126 -0.0117,0.0371 -0.003,0.0123 0.0227,-0.0274 0.0137,-0.0352 z m -20.72656,0.41016 c -0.008,0.0622 -0.0158,0.12358 -0.0293,0.18359 0.027,0.007 0.0495,0.0132 0.0605,0.0215 -0.0402,-3e-5 -0.0503,-4e-5 -0.0664,0 -5.7e-4,0.002 -8e-4,0.005 -0.002,0.008 0.0239,0.003 0.065,0.01 0.10938,0.0195 -0.0248,-0.076 -0.051,-0.14873 -0.0723,-0.23242 z m 12.82031,1.82422 c 0.0162,0.009 0.0486,0.0301 0.0586,0.0371 h 0.002 c 0.003,-0.008 0.007,-0.0171 0.01,-0.0254 -0.0252,-0.003 -0.0409,-0.007 -0.0703,-0.0117 z m -5.25195,1.23828 c -0.80399,0 -1.41773,0.35573 -1.84375,1.06836 -0.42281,0.70905 -0.63477,1.74011 -0.63477,3.09375 0,1.35006 0.21196,2.38111 0.63477,3.09375 0.42602,0.70904 1.03976,1.06445 1.84375,1.06445 0.80398,0 1.41703,-0.35541 1.83984,-1.06445 0.42602,-0.71264 0.64063,-1.74369 0.64063,-3.09375 0,-1.35364 -0.21461,-2.3847 -0.64063,-3.09375 -0.42281,-0.71263 -1.03586,-1.06836 -1.83984,-1.06836 z m 12.52148,0 c -0.80398,0 -1.41968,0.35573 -1.8457,1.06836 -0.42281,0.70905 -0.63281,1.74011 -0.63281,3.09375 0,1.35006 0.21,2.38111 0.63281,3.09375 0.42602,0.70904 1.04172,1.06445 1.8457,1.06445 0.80399,0 1.41703,-0.35541 1.83985,-1.06445 0.42601,-0.71264 0.63867,-1.74369 0.63867,-3.09375 0,-1.35364 -0.21266,-2.3847 -0.63867,-3.09375 -0.42282,-0.71263 -1.03586,-1.06836 -1.83985,-1.06836 z m -19.11328,0.14453 -1.71484,0.38672 v 0.98828 l 1.72461,-0.38672 v 6.11914 h -1.58594 v 0.91211 h 4.13281 v -0.91211 h -1.58593 v -7.08984 c -5.6e-4,-0.006 3.7e-4,-0.0119 0,-0.0176 z m 12.52149,0 -1.71485,0.38672 v 0.98828 l 1.72461,-0.38672 v 6.11914 h -1.58594 v 0.91211 h 4.13282 v -0.91211 H 301.75 v -7.10742 z m 12.52148,0 -1.7168,0.38672 v 0.98828 l 1.72657,-0.38672 v 6.11914 h -1.58594 v 0.91211 h 4.13086 v -0.91211 h -1.58399 v -7.10742 z m -18.45117,0.71484 c 0.50289,0 0.87906,0.27665 1.12891,0.82813 0.25304,0.5479 0.38086,1.37165 0.38086,2.47461 0,1.09939 -0.12782,1.92508 -0.38086,2.47656 -0.24985,0.54791 -0.62602,0.82031 -1.12891,0.82031 -0.49969,0 -0.87586,-0.2724 -1.12891,-0.82031 -0.24984,-0.55148 -0.375,-1.37717 -0.375,-2.47656 0,-1.10296 0.12516,-1.92671 0.375,-2.47461 0.25305,-0.55148 0.62922,-0.82813 1.12891,-0.82813 z m 12.52148,0 c 0.50289,0 0.87907,0.27665 1.12891,0.82813 0.25305,0.5479 0.37891,1.37165 0.37891,2.47461 0,1.09939 -0.12586,1.92508 -0.37891,2.47656 -0.24984,0.54791 -0.62602,0.82031 -1.12891,0.82031 -0.49968,0 -0.87586,-0.2724 -1.1289,-0.82031 -0.24985,-0.55148 -0.375,-1.37717 -0.375,-2.47656 0,-1.10296 0.12515,-1.92671 0.375,-2.47461 0.25304,-0.55148 0.62922,-0.82813 1.1289,-0.82813 z m -18.78125,8.30469 c -0.80398,0 -1.41968,0.35768 -1.8457,1.07031 -0.42281,0.70905 -0.63476,1.73815 -0.63476,3.0918 0,1.35006 0.21195,2.38307 0.63476,3.0957 0.42602,0.70905 1.04172,1.06246 1.8457,1.0625 0.80399,0 1.41703,-0.35345 1.83985,-1.0625 0.42601,-0.71263 0.63867,-1.74564 0.63867,-3.0957 0,-1.35365 -0.21266,-2.38275 -0.63867,-3.0918 -0.42282,-0.71263 -1.03586,-1.07031 -1.83985,-1.07031 z m 12.52149,0 c -0.80399,0 -1.41965,0.35768 -1.84571,1.07031 -0.42281,0.70905 -0.63476,1.73815 -0.63476,3.0918 0,1.35006 0.21195,2.38307 0.63476,3.0957 0.42602,0.70905 1.04172,1.06246 1.84571,1.0625 0.80398,0 1.41703,-0.35345 1.83984,-1.0625 0.42602,-0.71263 0.63867,-1.74564 0.63867,-3.0957 0,-1.35365 -0.21265,-2.38275 -0.63867,-3.0918 -0.42281,-0.71263 -1.03586,-1.07031 -1.83984,-1.07031 z m 12.51953,0 c -0.80399,0 -1.41773,0.35768 -1.84375,1.07031 -0.42281,0.70905 -0.63477,1.73815 -0.63477,3.0918 0,1.35006 0.21196,2.38307 0.63477,3.0957 0.42602,0.70905 1.03976,1.06246 1.84375,1.0625 0.80398,0 1.41898,-0.35345 1.8418,-1.0625 0.42601,-0.71263 0.63867,-1.74564 0.63867,-3.0957 0,-1.35365 -0.21266,-2.38275 -0.63867,-3.0918 -0.42282,-0.71263 -1.03782,-1.07031 -1.8418,-1.07031 z m -19.11328,0.14649 -1.71485,0.38476 v 0.99024 l 1.72461,-0.38672 v 6.11914 h -1.58398 v 0.91211 h 4.13086 v -0.91211 h -1.58594 v -7.10742 z m 12.52148,0 -1.71484,0.38476 v 0.99024 l 1.72461,-0.38672 v 6.11914 h -1.58594 v 0.91211 h 4.13281 v -0.91211 h -1.58593 v -7.10742 z m -18.44922,0.71289 c 0.50289,0 0.87907,0.27664 1.12891,0.82812 0.25305,0.5479 0.37891,1.37164 0.37891,2.47461 0,1.09939 -0.12586,1.92704 -0.37891,2.47852 -0.24984,0.54791 -0.62602,0.82031 -1.12891,0.82031 -0.49968,0 -0.87586,-0.2724 -1.1289,-0.82031 -0.24985,-0.55148 -0.375,-1.37913 -0.375,-2.47852 0,-1.10297 0.12515,-1.92671 0.375,-2.47461 0.25304,-0.55148 0.62922,-0.82812 1.1289,-0.82812 z m 12.52149,0 c 0.50289,0 0.87906,0.27664 1.1289,0.82812 0.25305,0.5479 0.37891,1.37164 0.37891,2.47461 0,1.09939 -0.12586,1.92704 -0.37891,2.47852 -0.24984,0.54791 -0.62601,0.82031 -1.1289,0.82031 -0.49969,0 -0.87781,-0.2724 -1.13086,-0.82031 -0.24985,-0.55148 -0.37305,-1.37913 -0.37305,-2.47852 0,-1.10297 0.1232,-1.92671 0.37305,-2.47461 0.25305,-0.55148 0.63117,-0.82812 1.13086,-0.82812 z m 12.51953,0 c 0.50289,0 0.87906,0.27664 1.12891,0.82812 0.25304,0.5479 0.38085,1.37164 0.38085,2.47461 0,1.09939 -0.12781,1.92704 -0.38085,2.47852 -0.24985,0.54791 -0.62602,0.82031 -1.12891,0.82031 -0.49969,0 -0.87586,-0.2724 -1.12891,-0.82031 -0.24984,-0.55148 -0.375,-1.37913 -0.375,-2.47852 0,-1.10297 0.12516,-1.92671 0.375,-2.47461 0.25305,-0.55148 0.62922,-0.82812 1.12891,-0.82812 z m -18.78125,8.30664 c -0.80399,0 -1.41773,0.35574 -1.84375,1.06836 -0.42281,0.70905 -0.63477,1.74011 -0.63477,3.09375 0,1.35007 0.21196,2.38306 0.63477,3.0957 0.42602,0.70905 1.03976,1.0625 1.84375,1.0625 0.80398,0 1.41703,-0.35345 1.83984,-1.0625 0.42602,-0.71264 0.64063,-1.74563 0.64063,-3.0957 0,-1.35364 -0.21461,-2.3847 -0.64063,-3.09375 -0.42281,-0.71262 -1.03586,-1.06836 -1.83984,-1.06836 z m 12.52148,0 c -0.80398,0 -1.41968,0.35574 -1.8457,1.06836 -0.42281,0.70905 -0.63281,1.74011 -0.63281,3.09375 0,1.35007 0.21,2.38306 0.63281,3.0957 0.42602,0.70905 1.04172,1.0625 1.8457,1.0625 0.80399,0 1.41703,-0.35345 1.83985,-1.0625 0.42601,-0.71264 0.63867,-1.74563 0.63867,-3.0957 0,-1.35364 -0.21266,-2.3847 -0.63867,-3.09375 -0.42282,-0.71262 -1.03586,-1.06836 -1.83985,-1.06836 z m -19.11328,0.14453 -1.71484,0.38672 v 0.99023 l 1.72461,-0.38867 v 6.11719 h -1.58594 v 0.91406 h 4.13281 v -0.91406 h -1.58593 v -7.10547 z m 12.52149,0 -1.71485,0.38672 v 0.99023 l 1.72461,-0.38867 v 6.11719 h -1.58594 v 0.91406 h 4.13282 v -0.91211 H 301.75 v -7.10742 z m 12.52148,0 -1.7168,0.38672 v 0.99023 l 1.72657,-0.38867 v 6.11719 h -1.58594 v 0.91406 h 4.13086 v -0.91406 h -1.58399 v -7.10547 z m -18.45117,0.71484 c 0.50289,0 0.87906,0.27665 1.12891,0.82813 0.25304,0.54791 0.38086,1.37165 0.38086,2.47461 0,1.0994 -0.12782,1.92508 -0.38086,2.47656 -0.24985,0.54791 -0.62602,0.82226 -1.12891,0.82226 -0.49969,0 -0.87586,-0.27435 -1.12891,-0.82226 -0.24984,-0.55148 -0.375,-1.37716 -0.375,-2.47656 0,-1.10296 0.12516,-1.9267 0.375,-2.47461 0.25305,-0.55148 0.62922,-0.82813 1.12891,-0.82813 z m 12.52148,0 c 0.50289,0 0.87907,0.27665 1.12891,0.82813 0.25305,0.54791 0.37891,1.37165 0.37891,2.47461 0,1.0994 -0.12586,1.92508 -0.37891,2.47656 -0.24984,0.54791 -0.62602,0.82226 -1.12891,0.82226 -0.49968,0 -0.87586,-0.27435 -1.1289,-0.82226 -0.24985,-0.55148 -0.375,-1.37716 -0.375,-2.47656 0,-1.10296 0.12515,-1.9267 0.375,-2.47461 0.25304,-0.55148 0.62922,-0.82813 1.1289,-0.82813 z m 4.21289,9.75586 V 585 l 0.29493,-0.0644 c -0.0899,-7.2e-4 -0.17976,-0.003 -0.26953,-0.004 -0.008,6e-5 -0.0169,-4e-5 -0.0254,0 z" />
    </g>
  </g>
</svg>
